<svg width="307" height="299" viewBox="0 0 307 299" fill="none" xmlns="http://www.w3.org/2000/svg">
<path d="M38.6999 258.804C38.6999 258.804 357.313 244.043 299.577 283.736C241.841 323.43 -116.606 271.46 38.6999 258.804Z" fill="#E8EDFF"/>
<path d="M200.644 150.215C200.644 150.215 186.511 186.601 187.112 208.853C187.714 231.105 200.567 267.19 200.567 267.19H215.68C215.68 267.19 206.16 220.881 208.265 208.703C210.37 196.524 224.102 167.46 224.102 167.46L200.644 150.215Z" fill="#0062B8"/>
<path d="M200.644 150.215C200.644 150.215 198.514 173.67 216.569 176.076C216.569 176.076 239.511 243.735 243.345 267.19H259.721L240.789 157.432C240.789 157.432 211.77 149.012 200.644 150.215Z" fill="#007AE6"/>
<path d="M193.202 94.2833C174.483 109.619 177.866 114.13 186.661 122.926C195.457 131.721 196.81 134.915 196.81 134.915C196.81 134.915 190.947 135.104 190.27 139.389C189.594 143.674 193.249 151.568 198.074 149.99C202.9 148.411 211.244 139.841 207.185 131.947C203.125 124.053 195.682 111.423 195.682 111.423L202.797 106.645L196.197 91.9276C195.193 92.7187 194.301 93.3835 193.202 94.2833Z" fill="#966340"/>
<path d="M216.569 79.9654C216.569 79.9654 212.293 79.2415 196.197 91.9276L202.797 106.645L215.496 98.1174C215.496 98.1174 223.924 87.0728 216.569 79.9654Z" fill="#1D864B"/>
<path d="M244.893 79.9654L257.909 92.0281C257.909 92.0281 238.082 134.428 240.789 157.432C240.789 157.432 217.334 164.649 200.644 150.215C200.644 150.215 203.037 101.281 216.569 79.9654H227.979H244.893Z" fill="#24A35B"/>
<path d="M244.893 74.3178V83.0068C244.893 83.0068 238.984 88.8706 228.61 83.0068L226.806 74.3178H244.893Z" fill="#966340"/>
<path d="M247.439 45.5317C247.439 45.5317 253.917 37.0554 261.003 45.5317C268.089 54.0079 257.066 66.6052 262.577 68.1799C262.577 68.1799 248.834 72.1034 247.439 60.4968C246.043 48.8903 247.439 45.5317 247.439 45.5317Z" fill="#713D23"/>
<path d="M231.195 80.3613C242.991 82.0751 248.623 70.1976 249.5 65.2794L250.296 56.4428C251.112 48.5859 246.05 40.8515 238.193 40.0355L234.255 39.1377C226.377 37.3421 218.663 43.383 217.847 51.24L217.052 60.0766C216.174 64.9948 218.399 77.6883 231.195 80.3613Z" fill="#B67B54"/>
<path d="M245.202 59.6742C245.202 59.6742 228.668 54.3601 225.519 44.1248C225.519 44.1248 222.379 51.2693 217.847 51.24C217.847 51.24 216.071 31.9394 240.872 38.8194C265.673 45.6994 247.439 70.8555 247.439 70.8555L245.202 59.6742Z" fill="#713D23"/>
<path d="M247.439 67.1448C250.144 67.1448 252.337 64.9515 252.337 62.246C252.337 59.5404 250.144 57.3471 247.439 57.3471C244.733 57.3471 242.54 59.5404 242.54 62.246C242.54 64.9515 244.733 67.1448 247.439 67.1448Z" fill="#B67B54"/>
<path d="M274.548 109.805H274.545L259.333 118.62H259.333L261.989 121.122C261.989 121.122 237.239 139.389 235.85 147.508C234.961 152.702 237.239 156.755 241.691 159.236C244.698 160.912 249.517 160.137 251.757 154.839C254.426 148.525 246.427 145.253 246.427 145.253C246.427 145.253 272.363 133.751 278.452 124.279C280.751 120.703 278.382 115.232 274.548 109.805Z" fill="#B67B54"/>
<path d="M274.545 109.805H274.548C268.225 100.856 257.909 92.0281 257.909 92.0281C251.573 90.2238 246.427 106.462 246.427 106.462L259.333 118.62H259.333L274.545 109.805Z" fill="#24A35B"/>
<path d="M274.548 109.805C274.548 109.805 266.59 93.0117 244.893 79.9654L250.428 110.231L274.548 109.805Z" fill="#24A35B"/>
<path d="M243.345 267.19C243.345 267.19 226.129 268.844 225.678 272.452C225.227 276.061 231.316 275.835 236.053 275.835C240.789 275.835 261.087 275.835 261.087 275.835L259.721 267.19H243.345Z" fill="#3C3C3C"/>
<path d="M200.541 267.19C200.541 267.19 183.325 268.844 182.874 272.452C182.423 276.061 188.513 275.835 193.249 275.835C197.985 275.835 216.883 275.835 216.883 275.835L215.68 267.19H200.541Z" fill="#242424"/>
<path d="M3.58551 115.89H80.3268V54.6113H20.798C11.2918 54.6113 3.58551 62.3176 3.58551 71.8238V115.89Z" fill="#FDC20F"/>
<path d="M61.6672 115.89H96.836V72.1957C96.836 62.4841 88.9632 54.6113 79.2516 54.6113H79.2516C69.54 54.6113 61.6672 62.4841 61.6672 72.1957V115.89Z" fill="#707C80"/>
<path d="M47.4089 84.0926C43.5299 88.8467 50.8904 94.9624 54.8245 90.1417C56.4949 88.094 56.1891 85.0798 54.1413 83.4093C52.0945 81.7396 49.0821 82.0445 47.4112 84.0898C47.4104 84.0907 47.4096 84.0917 47.4089 84.0926Z" fill="#DC50C5"/>
<path d="M51.7417 46.9424L46.0189 47.2009L38.7 47.5315L38.9811 53.7557L46.3 53.4251L47.71 84.6402L53.9257 84.1697L52.2431 46.9197L51.7417 46.9424Z" fill="#DC50C5"/>
<path d="M134.852 115.89H61.6672V124.956H134.852V115.89Z" fill="#FDC20F"/>
<path d="M57.2911 115.89H46.6246V275.838H57.2911V115.89Z" fill="#707C80"/>
<path fill-rule="evenodd" clip-rule="evenodd" d="M106.602 98.0717L107.168 99.4665C107.955 99.1597 108.714 98.7887 109.467 98.4039L108.822 97.0453C108.095 97.4173 107.363 97.7761 106.602 98.0717Z" fill="#707C80"/>
<path fill-rule="evenodd" clip-rule="evenodd" d="M102.488 99.5765L102.907 101.024C103.722 100.802 104.505 100.484 105.305 100.217L104.803 98.7975C104.03 99.0538 103.273 99.3633 102.488 99.5765Z" fill="#707C80"/>
<path fill-rule="evenodd" clip-rule="evenodd" d="M98.2596 100.602L98.5007 102.091C99.3395 101.943 100.168 101.766 100.986 101.559L100.637 100.091C99.8485 100.292 99.0555 100.461 98.2596 100.602Z" fill="#707C80"/>
<path fill-rule="evenodd" clip-rule="evenodd" d="M117.715 91.041L118.688 92.1765C119.359 91.6514 119.906 90.9851 120.52 90.3954L119.478 89.3252C118.886 89.8923 118.363 90.5365 117.715 91.041Z" fill="#707C80"/>
<path fill-rule="evenodd" clip-rule="evenodd" d="M114.268 93.7799L115.111 95.0196C115.807 94.5336 116.507 94.0539 117.14 93.4822L116.224 92.2984C115.615 92.8502 114.939 93.3116 114.268 93.7799Z" fill="#707C80"/>
<path fill-rule="evenodd" clip-rule="evenodd" d="M110.573 96.1337L111.28 97.4593L113.466 96.1654L112.683 94.8855L110.573 96.1337Z" fill="#707C80"/>
<path fill-rule="evenodd" clip-rule="evenodd" d="M125.92 80.6565L127.206 81.3996L128.375 79.1122L127.05 78.4469L125.92 80.6565Z" fill="#707C80"/>
<path fill-rule="evenodd" clip-rule="evenodd" d="M123.578 84.4253L124.777 85.3072L126.177 83.1554L124.927 82.3506L123.578 84.4253Z" fill="#707C80"/>
<path fill-rule="evenodd" clip-rule="evenodd" d="M120.859 87.8992L121.953 88.9135L123.563 86.9192L122.409 85.9778L120.859 87.8992Z" fill="#707C80"/>
<path fill-rule="evenodd" clip-rule="evenodd" d="M131.005 68.1903L132.378 68.746L133.337 66.4538L131.982 65.8537L131.005 68.1903Z" fill="#707C80"/>
<path fill-rule="evenodd" clip-rule="evenodd" d="M129.475 72.4658L130.872 72.9555L131.71 70.6078L130.326 70.0812L129.475 72.4658Z" fill="#707C80"/>
<path fill-rule="evenodd" clip-rule="evenodd" d="M127.879 76.6267L129.233 77.2299L130.16 74.8339L128.777 74.3059L127.879 76.6267Z" fill="#707C80"/>
<path fill-rule="evenodd" clip-rule="evenodd" d="M137.1 56.0049L138.33 56.8406L139.729 54.8231L138.544 53.9223L137.1 56.0049Z" fill="#707C80"/>
<path fill-rule="evenodd" clip-rule="evenodd" d="M134.779 59.9106L136.072 60.6388L137.315 58.5093L136.055 57.7213L134.779 59.9106Z" fill="#707C80"/>
<path fill-rule="evenodd" clip-rule="evenodd" d="M132.771 63.9702L134.11 64.6055L135.204 62.3845L133.889 61.6969L132.771 63.9702Z" fill="#707C80"/>
<path fill-rule="evenodd" clip-rule="evenodd" d="M146.158 45.8984L147.063 47.0913C147.667 46.5489 148.341 46.1028 149.013 45.6547L148.186 44.4036C147.487 44.8702 146.788 45.3356 146.158 45.8984Z" fill="#707C80"/>
<path fill-rule="evenodd" clip-rule="evenodd" d="M142.791 48.9261L143.826 50.0026C144.416 49.4474 144.933 48.8075 145.581 48.3204L144.615 47.1779C143.942 47.6871 143.403 48.3481 142.791 48.9261Z" fill="#707C80"/>
<path fill-rule="evenodd" clip-rule="evenodd" d="M139.782 52.3003L140.926 53.2552L142.484 51.3725L141.397 50.3502L139.782 52.3003Z" fill="#707C80"/>
<path fill-rule="evenodd" clip-rule="evenodd" d="M157.986 39.4576L158.471 40.8842L160.768 40.102L160.353 38.6527L157.986 39.4576Z" fill="#707C80"/>
<path fill-rule="evenodd" clip-rule="evenodd" d="M153.828 41.1492L154.446 42.5207L156.666 41.548L156.124 40.1429L153.828 41.1492Z" fill="#707C80"/>
<path fill-rule="evenodd" clip-rule="evenodd" d="M149.868 43.263L150.629 44.557L152.747 43.384L152.066 42.0441L149.868 43.263Z" fill="#707C80"/>
<path fill-rule="evenodd" clip-rule="evenodd" d="M171.046 36.4818L171.232 37.98C172.039 37.8741 172.842 37.7453 173.657 37.6929L173.512 36.1901C172.687 36.2436 171.867 36.3742 171.046 36.4818Z" fill="#707C80"/>
<path fill-rule="evenodd" clip-rule="evenodd" d="M166.643 37.173L166.91 38.6582C167.708 38.5095 168.5 38.328 169.311 38.2395L169.092 36.7462C168.269 36.8365 167.458 37.0211 166.643 37.173Z" fill="#707C80"/>
<path fill-rule="evenodd" clip-rule="evenodd" d="M162.298 38.1418L162.664 39.6047C163.453 39.4152 164.223 39.1567 165.025 39.023L164.718 37.5458C163.899 37.683 163.106 37.9473 162.298 38.1418Z" fill="#707C80"/>
<path fill-rule="evenodd" clip-rule="evenodd" d="M184.069 34.5499L184.545 35.9793C185.387 35.7895 186.164 35.3847 186.937 34.9604L186.271 33.6126C185.57 33.9997 184.864 34.3758 184.069 34.5499Z" fill="#707C80"/>
<path fill-rule="evenodd" clip-rule="evenodd" d="M179.855 35.5251L180.072 37.0188C180.909 36.8756 181.763 36.8752 182.581 36.5676L182.235 35.0996C181.48 35.3921 180.65 35.3888 179.855 35.5251Z" fill="#707C80"/>
<path fill-rule="evenodd" clip-rule="evenodd" d="M175.505 36.0185L175.623 37.5239C176.443 37.4426 177.229 37.4108 178.084 37.2814L177.959 35.7766C177.168 35.9013 176.323 35.9376 175.505 36.0185Z" fill="#707C80"/>
<path fill-rule="evenodd" clip-rule="evenodd" d="M192.731 25.7541L194.153 26.1625C194.424 25.3026 194.599 24.4311 194.658 23.5455L193.191 23.365C193.14 24.1866 192.978 24.9809 192.731 25.7541Z" fill="#707C80"/>
<path fill-rule="evenodd" clip-rule="evenodd" d="M190.944 29.6561L192.149 30.5286C192.762 29.8519 193.041 28.9718 193.455 28.1736L192.104 27.563C191.73 28.2693 191.497 29.067 190.944 29.6561Z" fill="#707C80"/>
<path fill-rule="evenodd" clip-rule="evenodd" d="M187.955 32.675L188.786 33.9229L190.838 32.2033L189.787 31.1419L187.955 32.675Z" fill="#707C80"/>
<path fill-rule="evenodd" clip-rule="evenodd" d="M192.006 12.6617L193.418 12.2211C193.18 11.3916 192.899 10.5766 192.598 9.76369L191.222 10.311C191.508 11.0838 191.778 11.866 192.006 12.6617Z" fill="#707C80"/>
<path fill-rule="evenodd" clip-rule="evenodd" d="M193 16.9957L194.458 16.7532C194.294 15.9028 194.178 15.039 193.948 14.2067L192.513 14.5645C192.735 15.3631 192.842 16.1844 193 16.9957Z" fill="#707C80"/>
<path fill-rule="evenodd" clip-rule="evenodd" d="M193.326 21.3936L194.803 21.4178C194.79 20.5408 194.827 19.6569 194.703 18.7944L193.233 18.9304C193.352 19.7503 193.313 20.5725 193.326 21.3936Z" fill="#707C80"/>
<path d="M186.893 5.684C186.893 5.684 188.337 -2.47572 191.827 0.757952C195.317 3.99163 192.34 8.08011 186.893 5.684Z" fill="#707C80"/>
<path d="M186.893 4.9384C186.893 4.9384 187.016 -1.60242 183.82 0.371094C180.624 2.34461 182.308 5.96515 186.893 4.9384Z" fill="#707C80"/>
<path d="M186.067 8.10644C187.071 8.10644 187.885 7.29253 187.885 6.28852C187.885 5.2845 187.071 4.47058 186.067 4.47058C185.063 4.47058 184.249 5.2845 184.249 6.28852C184.249 7.29253 185.063 8.10644 186.067 8.10644Z" fill="#707C80"/>
</svg>
